<svg xmlns="http://www.w3.org/2000/svg" viewBox="0 0 32 32">
  <rect width="32" height="32" rx="8" fill="#4F46E5"/>
  <!-- Central node -->
  <circle cx="16" cy="16" r="3" fill="#84CC16"/>
  <!-- Orbiting nodes -->
  <circle cx="16" cy="6" r="2" fill="white" opacity="0.9"/>
  <circle cx="26" cy="16" r="2" fill="white" opacity="0.9"/>
  <circle cx="16" cy="26" r="2" fill="white" opacity="0.9"/>
  <circle cx="6" cy="16" r="2" fill="white" opacity="0.9"/>
  <!-- Diagonal nodes -->
  <circle cx="23" cy="9" r="1.5" fill="white" opacity="0.5"/>
  <circle cx="23" cy="23" r="1.5" fill="white" opacity="0.5"/>
  <circle cx="9" cy="23" r="1.5" fill="white" opacity="0.5"/>
  <circle cx="9" cy="9" r="1.5" fill="white" opacity="0.5"/>
  <!-- Connector lines -->
  <line x1="16" y1="13" x2="16" y2="8" stroke="white" stroke-width="1" opacity="0.4"/>
  <line x1="19" y1="16" x2="24" y2="16" stroke="white" stroke-width="1" opacity="0.4"/>
  <line x1="16" y1="19" x2="16" y2="24" stroke="white" stroke-width="1" opacity="0.4"/>
  <line x1="13" y1="16" x2="8" y2="16" stroke="white" stroke-width="1" opacity="0.4"/>
  <line x1="18.1" y1="13.9" x2="22" y2="10" stroke="white" stroke-width="1" opacity="0.25"/>
  <line x1="18.1" y1="18.1" x2="22" y2="22" stroke="white" stroke-width="1" opacity="0.25"/>
  <line x1="13.9" y1="18.1" x2="10" y2="22" stroke="white" stroke-width="1" opacity="0.25"/>
  <line x1="13.9" y1="13.9" x2="10" y2="10" stroke="white" stroke-width="1" opacity="0.25"/>
</svg>
